<?xml version="1.0" encoding="utf-8"?>
<!-- Generator: Adobe Illustrator 25.3.1, SVG Export Plug-In . SVG Version: 6.00 Build 0)  -->
<svg version="1.1" id="Layer_1" xmlns="http://www.w3.org/2000/svg" xmlns:xlink="http://www.w3.org/1999/xlink" x="0px" y="0px"
	 viewBox="0 0 800 800" style="enable-background:new 0 0 800 800;" xml:space="preserve">
<style type="text/css">
	.st0{fill-rule:evenodd;clip-rule:evenodd;fill:#2FBEF4;}
	.st1{fill:#F30C43;}
	.st2{fill:url(#Path_3092_1_);}
	.st3{fill:url(#Path_3093_1_);}
	.st4{fill:url(#Path_3094_1_);}
</style>
<g id="Group_983" transform="translate(5735 -2008.216)">
	<path class="st0" d="M-5255.6,2063.4l0.4,33.5c29.5,5.6,45.8,15.9,65.3,45c6.9,0.6,35.2,6,55.4,30c25.5,30.2,33.9,78.7,14,127.8
		c1.7,3.3,3.2,26.1,8.2,47.5c3.3,14.1,26,35.9,32,54.5c12.1,20.9,9.9,71.4,32.7,157.5c1.5,13.1,9.8,31.3,13.6,48.1l-2.1,13.9
		c-3.9-17.3-20.8-44.3-22.3-57.6c-21.2-70.6-19.3-112.4-38-158.4c-5.1-15.7-20.9-37.1-24-49.3c-1.8-7-0.9-34.1-14.9-57.1
		c6-20.9,11-42.4,11-64.2c0-21.6-8.7-40.4-23.5-58c-9.1-10.8-30.1-28.2-45.3-28.5l-1.2-1.2c-20.7-20.7-37.4-31.3-61.4-44.9l0.8,15.9
		c0.4,8.3,12,13.3,14.8,18.8c-13.8-4.7-21.7-10.8-22.2-19C-5263.4,2101.7-5265.9,2064.7-5255.6,2063.4L-5255.6,2063.4z
		 M-5382.9,2102c-1.5,0.3-10-18.4-11.6-16.6c-43.3,15.8-80.2,34.2-102.9,56.1c1.5-0.1,2.9-0.3,4.4-0.1c22.6,2.8,38.6,10.6,45.2,15
		c-38.1-3-82.8-4.8-109.5,26.4c-9.2,10.7-15.5,24.5-18.5,41.1c-7.2,39.8,10.5,66.4,14.2,78c-4-1.3-25.6-20.1-28.8-39.9
		c-5.2,5.6-9.1,11.2-16.2,47.5c-6,30.8-11.5,68.5,16.4,91c-8.9-2.8-12.3,0.6-23.4-8.9c-0.4,26.1,0.8,43.1,1.7,62.4
		c1.2,23.7-4.5,62.5-2.7,78.2c1.1,9.5,6.4,11.7,9.4,23.3l0.3,0.6c7.4,21.6,10.3,43.9,19.1,64.8c22.9,54.5,44.6,85.7,75.3,136.5
		l0.6,2.3c-14.6,1.6-58.9-69.5-67.9-85.2c-21.5-37.6-26.3-79.3-40.5-120.8c-10-17.6-6.3-27.2-4.2-60.3c1.3-5.6,0.6-19.9-0.3-39.2
		c-1.9-37.9-10.3-95.1-0.2-147.3c8.3-42.8,26.7-54.6,31.7-59.2c-3.4-57.7,38.9-103.9,88.1-107.3c30.8-46.9,95.4-63,109.4-64.1
		c-0.3,1.6-4.8-47.9,8-56.1C-5383,2057-5382.7,2065.3-5382.9,2102L-5382.9,2102z M-5271.4,2381.7c19.4-11.5,11.8-53,1.8-56
		C-5264.9,2342.7-5265.8,2361.5-5271.4,2381.7L-5271.4,2381.7z M-5189.1,2548c1.2-47.1,10.4-79.6-3.7-117.9c0.2-5.5-0.1-3.4,1-15
		l11.3,20.3c0,2.1,0.5,1.2,0.8,8.7c0.5,11.7,2.1,29.5,7.5,52c11.3,46.6,59.5,103.9,86.1,144.8c19.7-12.8-60.4-99.3-73.3-152.9
		c-3.7-13.3-12.2-61.2-12.3-61.2c-16.6-18.5-24.5-49.5-13.1-79.9c23.6-9.3,38.5-32,42.3-55.8c1.8-11.5,4.4-33.1-13.9-52.2
		c4.8,12.2,6,28,3.5,43.4c-3.3,20.6-15.1,42.7-35.7,50.8c-40.3,15.8-63.4-22.2-74.6-30c0.3-62.6-7.8-84.8-20.1-104.2l15.4,104.9
		c-17.1,34.2-43.5,57.1-68.1,61.2c-25.7,4.3-54.4-4.1-82.9-18.2c-15.9-7.9-28.3-25.6-38.1-42.1c11.3-9.4,18.8-24.2,17.6-41.1
		c-8.2,23.2-34.4,42.4-57,50.4c10.2,2.7,20.7,1.3,29.8-3.2c-6.3,34.3-5.8,66.6-26.3,119.7c-0.3,0.9-0.6,1.9-0.9,2.8l-3.4,7.6
		c-7.5,14.1-19.3,21.8-25.8,33c-2.3,4-4.2,7.3-5.7,10.1c-4,7.6,4.1,7.7,12.4,26.7c7.8,17.9,18.8,39.7,24.3,65.2
		c3.5,16,1.5,43,2.6,54.9c1.9,20.2,3.6,39,15.5,69.8c3.9,10.1,9.7,33.8,20.8,46.3c-22.1-68.2-20.7-144.4-28.3-179.2
		c-2.7-44.4-47.5-65-39.8-79.7c8.9-17.1,21.7-20.2,33.3-32.3c12.8,12.1,29.5,28,32.2,61.2c-3.4,11.2-6.2,19.5-8.5,26.6
		c-10,30-14.4,55.5-3.1,84.5c4.5-8.2,3-50,13.6-81.8c0.9-2.7,1.8-5.4,2.7-8.1l0.1,0.4c1.3,8.3,4.5,16.2,9.6,20.4
		c11.9,9.9,20.4,6.9,59.9,25.7c-9.1-21.8-45.6-26.1-52.8-33.8c-5.3-5.7-8-19.4-10.3-34c-0.7-20.5-6.2-33.3-14.4-52.2
		c-4.1-9.5-8.9-20.5-14-34.9c11.3-36.4,8.5-78.4,13.1-112.8c7.2,11.2,20.5,36.8,36.5,44.7c30,14.9,61,21.3,88.7,16.7
		c35.7-6,65.7-36.9,68-73.7l0.2,0c2.6,22.3,35.5,52.6,70.3,45.9l-1.2,36.3c-0.9,8.7-4.5,38.2-4.2,44.2c1.4,9.2,6.6,20.5,5.8,31.9
		c-2.1,41.9-6,83.7-13.6,125c6-7.9,11.5-13.9,14.9-24.6c3.5,7.7,8.4,16.5,15,23.8c12.2,13.3,10.3,14.7,10.3,14.7l5.3,6.8
		c0,0,9.3-7-9.3-27.3C-5183.8,2569.3-5186.8,2555.7-5189.1,2548L-5189.1,2548z M-5289,2181c1.5,0.7,27.2-29.6,90.7-32.7
		C-5230.3,2138.6-5268.2,2143-5289,2181L-5289,2181z M-5397,2145c0.1,4,37.7,8.9,62.7,22.6c27,14.8,44.4,30.1,48.4,33.2
		C-5299.8,2152.5-5361.8,2144.7-5397,2145L-5397,2145z M-5358.8,2520.1c-3.9-11.1-16.9-39.3-7.5-68.7
		C-5383.4,2459.1-5382.4,2511.2-5358.8,2520.1L-5358.8,2520.1z M-5361.7,2448.6c0-0.1-11.3-25.1-0.8-53
		C-5378.7,2396.1-5385,2444.5-5361.7,2448.6L-5361.7,2448.6z M-5276.1,2511.2c19.4-11.5,11.8-53,1.8-56
		C-5269.5,2472.2-5270.5,2491-5276.1,2511.2L-5276.1,2511.2z M-5276.9,2452.7c20.9,0,19.9-55.3,3.7-64.8
		C-5267.3,2407.2-5271.3,2437.4-5276.9,2452.7L-5276.9,2452.7z M-5437.8,2395c-9.7,30.7,33.1,62.3,67.4,52.4
		C-5404.8,2437-5425.9,2426.8-5437.8,2395L-5437.8,2395z M-5343.3,2397c15.8,4.5,41.7,10.1,67.8-8
		C-5277.9,2413.4-5331.6,2418.3-5343.3,2397L-5343.3,2397z M-5357.4,2451c22.8,10.4,48.9,14.2,72.2-0.6
		C-5285.8,2470.8-5340.9,2480.6-5357.4,2451L-5357.4,2451z M-5349.4,2496.3c26.6,15.7,43.1,14.1,62.4,6.9
		C-5293.8,2528.7-5347.3,2518-5349.4,2496.3L-5349.4,2496.3z M-5261.6,2494.3c5.7,23,68,1.3,50.9-26
		C-5217.1,2489.2-5242,2500.4-5261.6,2494.3L-5261.6,2494.3z M-5264.2,2451c17,19.6,63.9,0.1,57.4-22.7
		C-5224.4,2450.1-5239.3,2451.9-5264.2,2451L-5264.2,2451z M-5269,2388.4c18.2,27.6,66.9,6.9,62.8-16.1
		C-5220.3,2391.4-5240.5,2399.1-5269,2388.4z"/>
</g>
<g id="Group_966" transform="translate(-5654.987 2125.231)">
	<g id="Group_799" transform="translate(0 0)">
		<g id="Group_798">
			<path id="Path_3091" class="st1" d="M6121.7-1343.5c-56.2,0-101.7-45.6-101.7-101.8c0-56.2,45.6-101.7,101.8-101.7
				c56.2,0,101.7,45.6,101.7,101.8c0,27-10.7,52.9-29.8,72C6174.6-1354.1,6148.7-1343.4,6121.7-1343.5z M6121.7-1543
				c-54,0-97.7,43.7-97.7,97.7c0,54,43.7,97.7,97.7,97.7s97.7-43.7,97.7-97.7l0,0C6219.3-1499.2,6175.6-1542.9,6121.7-1543z"/>
		</g>
	</g>
	<g id="Group_801" transform="translate(5.698 5.698)">
		<g id="Group_800">
			
				<radialGradient id="Path_3092_1_" cx="5638.6338" cy="-1342.4963" r="3.1548" gradientTransform="matrix(7.1442 -37.1199 -37.1194 -7.1443 -84000.0156 198263.3906)" gradientUnits="userSpaceOnUse">
				<stop  offset="0" style="stop-color:#FFFADC"/>
				<stop  offset="0.347" style="stop-color:#FAE8C5"/>
				<stop  offset="0.615" style="stop-color:#EAA874"/>
				<stop  offset="0.858" style="stop-color:#D98675"/>
				<stop  offset="1" style="stop-color:#983570"/>
			</radialGradient>
			<path id="Path_3092" class="st2" d="M6116-1372.8c-43.2,0-78.2-35-78.2-78.2c0-43.2,35-78.2,78.2-78.2c43.2,0,78.2,35,78.2,78.2
				l0,0C6194.1-1407.8,6159.1-1372.8,6116-1372.8z M6116-1521.9c-39.2,0-70.9,31.8-70.9,70.9c0,39.2,31.8,70.9,70.9,70.9
				c39.2,0,70.9-31.8,70.9-70.9c0,0,0,0,0,0C6186.9-1490.1,6155.1-1521.8,6116-1521.9z"/>
		</g>
	</g>
	<g id="Group_802" transform="translate(13.182 13.182)">
		
			<radialGradient id="Path_3093_1_" cx="5623.1802" cy="-1357.8928" r="3.1548" gradientTransform="matrix(4.315 -22.4196 -22.4196 -4.315 -48598.8203 118751.8516)" gradientUnits="userSpaceOnUse">
			<stop  offset="0" style="stop-color:#FFFADC"/>
			<stop  offset="0.347" style="stop-color:#FAE8C5"/>
			<stop  offset="0.615" style="stop-color:#EAA874"/>
			<stop  offset="0.858" style="stop-color:#D98675"/>
			<stop  offset="1" style="stop-color:#983570"/>
		</radialGradient>
		<path id="Path_3093" class="st3" d="M6108.5-1411.2c-26.1,0-47.2-21.1-47.2-47.2c0-26.1,21.1-47.2,47.2-47.2
			c26.1,0,47.2,21.1,47.2,47.2C6155.7-1432.3,6134.6-1411.2,6108.5-1411.2z M6108.5-1498.5c-22.1,0-40.1,17.9-40.1,40.1
			s17.9,40.1,40.1,40.1c22.1,0,40.1-17.9,40.1-40.1c0,0,0,0,0,0C6148.5-1480.5,6130.6-1498.4,6108.5-1498.5L6108.5-1498.5z"/>
	</g>
	<g id="Group_803" transform="translate(18.715 19.175)">
		
			<radialGradient id="Path_3094_1_" cx="5598.5962" cy="-1382.7019" r="3.155" gradientTransform="matrix(2.2235 -11.5524 -11.5529 -2.2234 -22319.8047 60140.4102)" gradientUnits="userSpaceOnUse">
			<stop  offset="0" style="stop-color:#FFFADC"/>
			<stop  offset="0.347" style="stop-color:#FAE8C5"/>
			<stop  offset="0.615" style="stop-color:#EAA874"/>
			<stop  offset="0.858" style="stop-color:#D98675"/>
			<stop  offset="1" style="stop-color:#983570"/>
		</radialGradient>
		<path id="Path_3094" class="st4" d="M6127.3-1462.5c0,13.4-10.9,24.3-24.3,24.3c-13.4,0-24.3-10.9-24.3-24.3
			c0-13.4,10.9-24.3,24.3-24.3C6116.4-1486.8,6127.3-1475.9,6127.3-1462.5z"/>
	</g>
</g>
</svg>
